<svg version="1" xmlns="http://www.w3.org/2000/svg" width="300" height="300" viewBox="0 0 225.000000 225.000000"><path d="M98 23.65C21.9 38.2-3.5 131.85 55.15 181.55c32.05 27.15 82.65 27.15 114.7 0C219.3 139.7 210.2 60.7 152.7 32.2c-14.9-7.35-40.2-11.35-54.7-8.55zM130.55 41c65.55 16.8 75.65 105.85 15.55 136.85-31.2 16.1-70.85 7.4-91.6-20.05C12.2 101.9 63.05 23.75 130.55 41z"/><path d="M100.85 65.9c-.2.5-11 10.95-24 23.25s-23.8 22.65-24 23c-.2.35 9.35 9.75 21.15 20.9 11.85 11.15 23.2 21.85 25.25 23.8l3.75 3.55v-23.1l-12.9-11.9c-7.1-6.55-12.95-12.35-12.95-12.9 0-.55 5.85-6.35 12.95-12.95L103 87.6V76.3c0-9.6-.9-13.85-2.15-10.4zm-31 48.15c-.35 2.25-.4 2.25-2.15.55-1.4-1.45-1.5-2.1-.6-3.25 1.6-1.9 3.15-.3 2.75 2.7zM122 76.4v11.35l4.25 3.8c2.35 2.1 8.35 7.7 13.3 12.4l9.1 8.65-13.35 12.35L122 137.3v11.35c0 6.25.15 11.35.3 11.35.35 0 3.25-2.75 31.7-29.5l19.1-18-4.8-4.45c-2.65-2.45-13.85-13.1-24.95-23.75C132.25 73.7 122.9 65 122.6 65c-.35 0-.6 5.1-.6 11.4zm35.85 34.3c.65 1.1.65 2.4.05 3.5-1.05 1.95-2.9 2.45-2.9.75 0-.6.45-.8 1-.45 1.3.8.8-3.75-.5-4.75-.65-.45-.55-.75.2-.75.65 0 1.65.8 2.15 1.7z"/></svg>