<svg version="1" xmlns="http://www.w3.org/2000/svg" width="149.333" height="120" viewBox="0 0 112.000000 90.000000"><path d="M32.95 1c-.05.55-.1 8.3-.15 17.25l-.1 16.25 5.25.3 5.2.3-.25-8.5c-.4-10.45-.4-10.45 6.25-6.5C56.6 24.5 96.2 44 97.75 44c.7 0 1.25.9 1.25 2s-.5 2-1.15 2C95.5 48 46.5 71.4 45.5 73c-1.8 2.9-3.25-.45-2.75-6.15l.55-5.95-5.3.3-5.25.3v13.8c0 14.7.25 15.85 3 13.55.95-.8 7.85-4.3 15.25-7.85 7.45-3.5 21.75-10.35 31.85-15.2 10.1-4.85 18.65-8.8 19.05-8.8 1.85 0 8.05-6.4 8.6-8.95 1.6-7.45 1.7-7.4-41-28.95C50.8 9.65 35.35 1.5 35.15.95 34.75-.3 33-.3 32.95 1zM0 24.95C0 26.6.45 28 1 28s1-1.1 1-2.45-.45-2.7-1-3.05c-.6-.35-1 .65-1 2.45zM18.05 40.4c-2.85 3.45-.9 5.1 5.95 5.1 6.6 0 9.05-1.85 6.2-4.7-1.8-1.8-10.75-2.05-12.15-.4z"/><path d="M34.45 42.1c-1.05 3.45.15 3.65 21.95 4.05 22.15.35 24 0 22.3-4.5-1.1-2.9-43.3-2.45-44.25.45zm-32.2 8.05c-3.55 3.55-1 6.1 5.95 6.1 5.6 0 7.1-1 6.65-4.4-.4-2.75-10.2-4.1-12.6-1.7zm16.7.3c-1.4 1.4-1.15 4.35.45 5.25 3.85 2.15 44.1-.1 44.4-2.45.2-1.25-.25-2.5-1-2.75-2.5-1-42.9-1-43.85-.05z"/></svg>