<?xml version="1.0" standalone="no"?>
<!DOCTYPE svg PUBLIC "-//W3C//DTD SVG 20010904//EN"
 "http://www.w3.org/TR/2001/REC-SVG-20010904/DTD/svg10.dtd">
<svg version="1.0" xmlns="http://www.w3.org/2000/svg"
 width="225.000000pt" height="225.000000pt" viewBox="0 0 225.000000 225.000000"
 preserveAspectRatio="xMidYMid meet">
<metadata>
Created by potrace 1.10, written by Peter Selinger 2001-2011
</metadata>
<g transform="translate(0.000000,225.000000) scale(0.050000,-0.050000)"
fill="#000000" stroke="none">
<path d="M1960 4027 c-1522 -291 -2030 -2164 -857 -3158 641 -543 1653 -543
2294 0 989 837 807 2417 -343 2987 -298 147 -804 227 -1094 171z m651 -347
c1311 -336 1513 -2117 311 -2737 -624 -322 -1417 -148 -1832 401 -846 1118
171 2681 1521 2336z"/>
<path d="M2017 3182 c-4 -10 -220 -219 -480 -465 -260 -246 -476 -453 -480
-460 -4 -7 187 -195 423 -418 237 -223 464 -437 505 -476 l75 -71 0 231 0 231
-258 238 c-142 131 -259 247 -259 258 0 11 117 127 259 259 l258 239 0 226 c0
192 -18 277 -43 208z m-620 -963 c-7 -45 -8 -45 -43 -11 -28 29 -30 42 -12 65
32 38 63 6 55 -54z"/>
<path d="M2440 2972 l0 -227 85 -76 c47 -42 167 -154 266 -248 l182 -173 -267
-247 -266 -247 0 -227 c0 -125 3 -227 6 -227 7 0 65 55 634 590 l382 360 -96
89 c-53 49 -277 262 -499 475 -222 212 -409 386 -415 386 -7 0 -12 -102 -12
-228z m717 -686 c13 -22 13 -48 1 -70 -21 -39 -58 -49 -58 -15 0 12 9 16 20 9
26 -16 16 75 -10 95 -13 9 -11 15 4 15 13 0 33 -16 43 -34z"/>
</g>
</svg>
