<?xml version="1.0" standalone="no"?>
<!DOCTYPE svg PUBLIC "-//W3C//DTD SVG 20010904//EN"
 "http://www.w3.org/TR/2001/REC-SVG-20010904/DTD/svg10.dtd">
<svg version="1.0" xmlns="http://www.w3.org/2000/svg"
 width="112.000000pt" height="90.000000pt" viewBox="0 0 112.000000 90.000000"
 preserveAspectRatio="xMidYMid meet">
<metadata>
Created by potrace 1.10, written by Peter Selinger 2001-2011
</metadata>
<g transform="translate(0.000000,90.000000) scale(0.050000,-0.050000)"
fill="#000000" stroke="none">
<path d="M659 1780 c-1 -11 -2 -166 -3 -345 l-2 -325 105 -6 104 -6 -5 170
c-8 209 -8 209 125 130 149 -88 941 -478 972 -478 14 0 25 -18 25 -40 0 -22
-10 -40 -23 -40 -47 0 -1027 -468 -1047 -500 -36 -58 -65 9 -55 123 l11 119
-106 -6 -105 -6 0 -276 c0 -294 5 -317 60 -271 19 16 157 86 305 157 149 70
435 207 637 304 202 97 373 176 381 176 37 0 161 128 172 179 32 149 34 148
-820 579 -374 189 -683 352 -687 363 -8 25 -43 25 -44 -1z"/>
<path d="M0 1301 c0 -33 9 -61 20 -61 11 0 20 22 20 49 0 27 -9 54 -20 61 -12
7 -20 -13 -20 -49z"/>
<path d="M361 992 c-57 -69 -18 -102 119 -102 132 0 181 37 124 94 -36 36
-215 41 -243 8z"/>
<path d="M689 958 c-21 -69 3 -73 439 -81 443 -7 480 0 446 90 -22 58 -866 49
-885 -9z"/>
<path d="M45 797 c-71 -71 -20 -122 119 -122 112 0 142 20 133 88 -8 55 -204
82 -252 34z"/>
<path d="M379 791 c-28 -28 -23 -87 9 -105 77 -43 882 2 888 49 4 25 -5 50
-20 55 -50 20 -858 20 -877 1z"/>
</g>
</svg>
